# xmcd CD database file
#
# Track frame offsets:
#	150
#	14540
#	27606
#	40640
#	52545
#	66341
#	88716
#	104380
#	119798
#	136713
#	156955
#	171591
#	183534
#	197390
#	211719
#	225942
#	241051
#
# Disc length: 3444 seconds
#
# Revision: 0
# Processed by: cddbd v1.5.2PL0 Copyright (c) Steve Scherf et al.
# Submitted via: CdAid (MTCDDB.DLL V2003.12.21)
#
DISCID=dd0d7211
DTITLE=Hugo Pena e Gabriel - Hugo Pena e Gabriel
DYEAR=1999
DGENRE=Folk
TTITLE0=Tô nem aí
TTITLE1=Mala pronta
TTITLE2=Bandidaça
TTITLE3=Tadim, tadim
TTITLE4=Recado meu
TTITLE5=Parece castigo
TTITLE6=Pra lá de Bagdá
TTITLE7=Pout-porri de viola
TTITLE8=Por enquanto adeus
TTITLE9=Vou te amar (cigana)
TTITLE10=Meu calor
TTITLE11=Robin Hood da paixão
TTITLE12=Coisas exotéricas
TTITLE13=Fora do eixo
TTITLE14=Ela é violenta
TTITLE15=Meu coração chorou
TTITLE16=Delícia
EXTD=ID3G:  80 YEAR: 1999
EXTT0=
EXTT1=
EXTT2=
EXTT3=
EXTT4=
EXTT5=
EXTT6=
EXTT7=
EXTT8=
EXTT9=
EXTT10=
EXTT11=
EXTT12=
EXTT13=
EXTT14=
EXTT15=BÔNUS
EXTT16=BÔNUS
PLAYORDER=
